<svg width="231" height="31" viewBox="0 0 231 31" fill="none" xmlns="http://www.w3.org/2000/svg">
<path d="M48.4205 23H43.2642V8.45455H48.4631C49.9261 8.45455 51.1856 8.74574 52.2415 9.32812C53.2973 9.90578 54.1094 10.7367 54.6776 11.821C55.2505 12.9053 55.5369 14.2027 55.5369 15.7131C55.5369 17.2282 55.2505 18.5303 54.6776 19.6193C54.1094 20.7083 53.2926 21.544 52.2273 22.1264C51.1667 22.7088 49.8977 23 48.4205 23ZM46.3395 20.3651H48.2926C49.2017 20.3651 49.9664 20.2041 50.5866 19.8821C51.2116 19.5554 51.6804 19.0511 51.9929 18.3693C52.3101 17.6828 52.4688 16.7973 52.4688 15.7131C52.4688 14.6383 52.3101 13.7599 51.9929 13.0781C51.6804 12.3963 51.214 11.8944 50.5938 11.5724C49.9735 11.2505 49.2088 11.0895 48.2997 11.0895H46.3395V20.3651ZM57.7582 23V12.0909H60.7837V23H57.7582ZM59.2781 10.6847C58.8282 10.6847 58.4424 10.5355 58.1204 10.2372C57.8031 9.93419 57.6445 9.57197 57.6445 9.15057C57.6445 8.7339 57.8031 8.37642 58.1204 8.07812C58.4424 7.77509 58.8282 7.62358 59.2781 7.62358C59.7279 7.62358 60.1114 7.77509 60.4286 8.07812C60.7506 8.37642 60.9116 8.7339 60.9116 9.15057C60.9116 9.57197 60.7506 9.93419 60.4286 10.2372C60.1114 10.5355 59.7279 10.6847 59.2781 10.6847ZM66.3182 23.206C65.6222 23.206 65.0019 23.0852 64.4574 22.8438C63.9129 22.5975 63.482 22.2353 63.1648 21.7571C62.8523 21.2741 62.696 20.6728 62.696 19.9531C62.696 19.3471 62.8073 18.8381 63.0298 18.4261C63.2524 18.0142 63.5554 17.6828 63.9389 17.4318C64.3224 17.1809 64.758 16.9915 65.2457 16.8636C65.7382 16.7358 66.2543 16.6458 66.794 16.5938C67.4285 16.5275 67.9399 16.4659 68.3281 16.4091C68.7164 16.3475 68.9981 16.2576 69.1733 16.1392C69.3485 16.0208 69.4361 15.8456 69.4361 15.6136V15.571C69.4361 15.1212 69.294 14.7732 69.0099 14.527C68.7306 14.2808 68.3329 14.1577 67.8168 14.1577C67.2723 14.1577 66.839 14.2784 66.517 14.5199C66.1951 14.7566 65.982 15.0549 65.8778 15.4148L63.0795 15.1875C63.2216 14.5246 63.5009 13.9517 63.9176 13.4688C64.3343 12.9811 64.8717 12.607 65.5298 12.3466C66.1927 12.0814 66.9598 11.9489 67.831 11.9489C68.437 11.9489 69.017 12.0199 69.571 12.1619C70.1297 12.304 70.6245 12.5241 71.0554 12.8224C71.491 13.1207 71.8343 13.5043 72.0852 13.973C72.3362 14.437 72.4616 14.9934 72.4616 15.642V23H69.5923V21.4872H69.5071C69.3319 21.8281 69.0975 22.1288 68.804 22.3892C68.5104 22.6449 68.1577 22.8461 67.7457 22.9929C67.3338 23.1349 66.858 23.206 66.3182 23.206ZM67.1847 21.1179C67.6297 21.1179 68.0227 21.0303 68.3636 20.8551C68.7045 20.6752 68.9721 20.4337 69.1662 20.1307C69.3603 19.8277 69.4574 19.4844 69.4574 19.1009V17.9432C69.3627 18.0047 69.2325 18.0616 69.0668 18.1136C68.9058 18.161 68.7235 18.206 68.5199 18.2486C68.3163 18.2865 68.1127 18.322 67.9091 18.3551C67.7055 18.3835 67.5208 18.4096 67.3551 18.4332C67 18.4853 66.6899 18.5682 66.4247 18.6818C66.1596 18.7955 65.9536 18.9493 65.8068 19.1435C65.66 19.3329 65.5866 19.5696 65.5866 19.8537C65.5866 20.2656 65.7358 20.5805 66.0341 20.7983C66.3371 21.0114 66.7206 21.1179 67.1847 21.1179ZM66.858 10.6847L68.3636 7.45312H71.1619L68.9957 10.6847H66.858ZM74.8089 23V12.0909H77.7422V13.9943H77.8558C78.0547 13.3172 78.3885 12.8059 78.8572 12.4602C79.326 12.1098 79.8658 11.9347 80.4766 11.9347C80.6281 11.9347 80.7914 11.9441 80.9666 11.9631C81.1418 11.982 81.2957 12.008 81.4283 12.0412V14.7259C81.2862 14.6832 81.0897 14.6454 80.8388 14.6122C80.5878 14.5791 80.3582 14.5625 80.1499 14.5625C79.7048 14.5625 79.3071 14.6596 78.9567 14.8537C78.611 15.0431 78.3364 15.3082 78.1328 15.6491C77.9339 15.9901 77.8345 16.383 77.8345 16.8281V23H74.8089ZM82.9925 23V12.0909H86.0181V23H82.9925ZM84.5124 10.6847C84.0626 10.6847 83.6767 10.5355 83.3548 10.2372C83.0375 9.93419 82.8789 9.57197 82.8789 9.15057C82.8789 8.7339 83.0375 8.37642 83.3548 8.07812C83.6767 7.77509 84.0626 7.62358 84.5124 7.62358C84.9622 7.62358 85.3458 7.77509 85.663 8.07812C85.985 8.37642 86.146 8.7339 86.146 9.15057C86.146 9.57197 85.985 9.93419 85.663 10.2372C85.3458 10.5355 84.9622 10.6847 84.5124 10.6847ZM93.3707 23.2131C92.2675 23.2131 91.3134 22.9787 90.5085 22.5099C89.7083 22.0365 89.0904 21.3783 88.6548 20.5355C88.2192 19.688 88.0014 18.7055 88.0014 17.5881C88.0014 16.4612 88.2192 15.4763 88.6548 14.6335C89.0904 13.786 89.7083 13.1278 90.5085 12.6591C91.3134 12.1856 92.2675 11.9489 93.3707 11.9489C94.474 11.9489 95.4257 12.1856 96.2259 12.6591C97.0308 13.1278 97.651 13.786 98.0866 14.6335C98.5223 15.4763 98.7401 16.4612 98.7401 17.5881C98.7401 18.7055 98.5223 19.688 98.0866 20.5355C97.651 21.3783 97.0308 22.0365 96.2259 22.5099C95.4257 22.9787 94.474 23.2131 93.3707 23.2131ZM93.3849 20.8693C93.8868 20.8693 94.3059 20.7273 94.642 20.4432C94.9782 20.1544 95.2315 19.7614 95.402 19.2642C95.5772 18.767 95.6648 18.2012 95.6648 17.5668C95.6648 16.9323 95.5772 16.3665 95.402 15.8693C95.2315 15.3722 94.9782 14.9792 94.642 14.6903C94.3059 14.4015 93.8868 14.2571 93.3849 14.2571C92.8783 14.2571 92.4522 14.4015 92.1065 14.6903C91.7656 14.9792 91.5076 15.3722 91.3324 15.8693C91.1619 16.3665 91.0767 16.9323 91.0767 17.5668C91.0767 18.2012 91.1619 18.767 91.3324 19.2642C91.5076 19.7614 91.7656 20.1544 92.1065 20.4432C92.4522 20.7273 92.8783 20.8693 93.3849 20.8693ZM109.356 23.1776C108.528 23.1776 107.777 22.9645 107.105 22.5384C106.437 22.1075 105.907 21.4754 105.514 20.642C105.126 19.804 104.931 18.7765 104.931 17.5597C104.931 16.3097 105.133 15.2704 105.535 14.4418C105.938 13.6084 106.473 12.9858 107.14 12.5739C107.813 12.1572 108.549 11.9489 109.349 11.9489C109.96 11.9489 110.469 12.053 110.876 12.2614C111.288 12.465 111.619 12.7206 111.87 13.0284C112.126 13.3314 112.32 13.6297 112.453 13.9233H112.545V8.45455H115.564V23H112.581V21.2528H112.453C112.311 21.5559 112.109 21.8565 111.849 22.1548C111.593 22.4484 111.26 22.6922 110.848 22.8864C110.44 23.0805 109.943 23.1776 109.356 23.1776ZM110.315 20.7699C110.803 20.7699 111.215 20.6373 111.551 20.3722C111.892 20.1023 112.152 19.7259 112.332 19.2429C112.517 18.7599 112.609 18.1941 112.609 17.5455C112.609 16.8968 112.519 16.3333 112.339 15.8551C112.159 15.3769 111.899 15.0076 111.558 14.7472C111.217 14.4867 110.803 14.3565 110.315 14.3565C109.818 14.3565 109.399 14.4915 109.058 14.7614C108.717 15.0312 108.459 15.4053 108.284 15.8835C108.109 16.3617 108.021 16.9157 108.021 17.5455C108.021 18.1799 108.109 18.741 108.284 19.2287C108.464 19.7116 108.722 20.0904 109.058 20.3651C109.399 20.6349 109.818 20.7699 110.315 20.7699ZM123.023 23.2131C121.901 23.2131 120.935 22.9858 120.125 22.5312C119.32 22.072 118.7 21.4233 118.264 20.5852C117.829 19.7424 117.611 18.7457 117.611 17.5952C117.611 16.473 117.829 15.4882 118.264 14.6406C118.7 13.7931 119.313 13.1326 120.104 12.6591C120.899 12.1856 121.832 11.9489 122.902 11.9489C123.622 11.9489 124.292 12.0649 124.912 12.2969C125.537 12.5241 126.081 12.8674 126.545 13.3267C127.014 13.786 127.379 14.3636 127.639 15.0597C127.9 15.7509 128.03 16.5606 128.03 17.4886V18.3196H118.818V16.4446H125.182C125.182 16.009 125.087 15.6231 124.898 15.2869C124.708 14.9508 124.446 14.688 124.109 14.4986C123.778 14.3045 123.392 14.2074 122.952 14.2074C122.492 14.2074 122.085 14.3139 121.73 14.527C121.38 14.7353 121.105 15.017 120.906 15.3722C120.707 15.7225 120.606 16.1132 120.601 16.544V18.3267C120.601 18.8665 120.7 19.3329 120.899 19.7259C121.103 20.1188 121.389 20.4219 121.759 20.6349C122.128 20.848 122.566 20.9545 123.072 20.9545C123.409 20.9545 123.716 20.9072 123.996 20.8125C124.275 20.7178 124.514 20.5758 124.713 20.3864C124.912 20.197 125.063 19.965 125.168 19.6903L127.966 19.875C127.824 20.5473 127.533 21.1345 127.092 21.6364C126.657 22.1335 126.093 22.5218 125.402 22.8011C124.715 23.0758 123.922 23.2131 123.023 23.2131ZM134.69 8.45455H138.483L142.488 18.2273H142.659L146.664 8.45455H150.457V23H147.474V13.5327H147.353L143.589 22.929H141.558L137.794 13.4972H137.673V23H134.69V8.45455ZM157.906 23.2131C156.783 23.2131 155.817 22.9858 155.008 22.5312C154.203 22.072 153.583 21.4233 153.147 20.5852C152.711 19.7424 152.494 18.7457 152.494 17.5952C152.494 16.473 152.711 15.4882 153.147 14.6406C153.583 13.7931 154.196 13.1326 154.987 12.6591C155.782 12.1856 156.715 11.9489 157.785 11.9489C158.504 11.9489 159.174 12.0649 159.795 12.2969C160.42 12.5241 160.964 12.8674 161.428 13.3267C161.897 13.786 162.262 14.3636 162.522 15.0597C162.782 15.7509 162.913 16.5606 162.913 17.4886V18.3196H153.701V16.4446H160.065C160.065 16.009 159.97 15.6231 159.781 15.2869C159.591 14.9508 159.328 14.688 158.992 14.4986C158.661 14.3045 158.275 14.2074 157.835 14.2074C157.375 14.2074 156.968 14.3139 156.613 14.527C156.263 14.7353 155.988 15.017 155.789 15.3722C155.59 15.7225 155.488 16.1132 155.484 16.544V18.3267C155.484 18.8665 155.583 19.3329 155.782 19.7259C155.986 20.1188 156.272 20.4219 156.641 20.6349C157.011 20.848 157.449 20.9545 157.955 20.9545C158.291 20.9545 158.599 20.9072 158.879 20.8125C159.158 20.7178 159.397 20.5758 159.596 20.3864C159.795 20.197 159.946 19.965 160.05 19.6903L162.849 19.875C162.707 20.5473 162.415 21.1345 161.975 21.6364C161.54 22.1335 160.976 22.5218 160.285 22.8011C159.598 23.0758 158.805 23.2131 157.906 23.2131ZM164.887 23V12.0909H167.771V14.0156H167.898C168.126 13.3764 168.504 12.8722 169.035 12.5028C169.565 12.1335 170.2 11.9489 170.938 11.9489C171.686 11.9489 172.323 12.1359 172.849 12.5099C173.374 12.8793 173.725 13.3812 173.9 14.0156H174.013C174.236 13.3906 174.638 12.8911 175.221 12.517C175.808 12.1383 176.502 11.9489 177.302 11.9489C178.32 11.9489 179.146 12.2732 179.781 12.9219C180.42 13.5658 180.739 14.4796 180.739 15.6634V23H177.721V16.2599C177.721 15.6539 177.56 15.1993 177.238 14.8963C176.916 14.5933 176.513 14.4418 176.031 14.4418C175.481 14.4418 175.053 14.617 174.745 14.9673C174.437 15.313 174.283 15.7699 174.283 16.3381V23H171.35V16.196C171.35 15.661 171.196 15.2348 170.888 14.9176C170.585 14.6004 170.185 14.4418 169.688 14.4418C169.352 14.4418 169.049 14.527 168.779 14.6974C168.514 14.8632 168.303 15.0975 168.147 15.4006C167.991 15.6989 167.913 16.0492 167.913 16.4517V23H164.887ZM188.058 23.2131C186.955 23.2131 186.001 22.9787 185.196 22.5099C184.396 22.0365 183.778 21.3783 183.342 20.5355C182.907 19.688 182.689 18.7055 182.689 17.5881C182.689 16.4612 182.907 15.4763 183.342 14.6335C183.778 13.786 184.396 13.1278 185.196 12.6591C186.001 12.1856 186.955 11.9489 188.058 11.9489C189.161 11.9489 190.113 12.1856 190.913 12.6591C191.718 13.1278 192.339 13.786 192.774 14.6335C193.21 15.4763 193.428 16.4612 193.428 17.5881C193.428 18.7055 193.21 19.688 192.774 20.5355C192.339 21.3783 191.718 22.0365 190.913 22.5099C190.113 22.9787 189.161 23.2131 188.058 23.2131ZM188.072 20.8693C188.574 20.8693 188.993 20.7273 189.33 20.4432C189.666 20.1544 189.919 19.7614 190.089 19.2642C190.265 18.767 190.352 18.2012 190.352 17.5668C190.352 16.9323 190.265 16.3665 190.089 15.8693C189.919 15.3722 189.666 14.9792 189.33 14.6903C188.993 14.4015 188.574 14.2571 188.072 14.2571C187.566 14.2571 187.14 14.4015 186.794 14.6903C186.453 14.9792 186.195 15.3722 186.02 15.8693C185.849 16.3665 185.764 16.9323 185.764 17.5668C185.764 18.2012 185.849 18.767 186.02 19.2642C186.195 19.7614 186.453 20.1544 186.794 20.4432C187.14 20.7273 187.566 20.8693 188.072 20.8693ZM186.972 10.6847L188.477 7.45312H191.276L189.109 10.6847H186.972ZM195.395 23V12.0909H198.328V13.9943H198.442C198.641 13.3172 198.974 12.8059 199.443 12.4602C199.912 12.1098 200.452 11.9347 201.062 11.9347C201.214 11.9347 201.377 11.9441 201.553 11.9631C201.728 11.982 201.882 12.008 202.014 12.0412V14.7259C201.872 14.6832 201.676 14.6454 201.425 14.6122C201.174 14.5791 200.944 14.5625 200.736 14.5625C200.291 14.5625 199.893 14.6596 199.543 14.8537C199.197 15.0431 198.922 15.3082 198.719 15.6491C198.52 15.9901 198.42 16.383 198.42 16.8281V23H195.395ZM203.578 23V12.0909H206.604V23H203.578ZM205.098 10.6847C204.649 10.6847 204.263 10.5355 203.941 10.2372C203.623 9.93419 203.465 9.57197 203.465 9.15057C203.465 8.7339 203.623 8.37642 203.941 8.07812C204.263 7.77509 204.649 7.62358 205.098 7.62358C205.548 7.62358 205.932 7.77509 206.249 8.07812C206.571 8.37642 206.732 8.7339 206.732 9.15057C206.732 9.57197 206.571 9.93419 206.249 10.2372C205.932 10.5355 205.548 10.6847 205.098 10.6847ZM212.138 23.206C211.442 23.206 210.822 23.0852 210.278 22.8438C209.733 22.5975 209.302 22.2353 208.985 21.7571C208.673 21.2741 208.516 20.6728 208.516 19.9531C208.516 19.3471 208.628 18.8381 208.85 18.4261C209.073 18.0142 209.376 17.6828 209.759 17.4318C210.143 17.1809 210.578 16.9915 211.066 16.8636C211.558 16.7358 212.075 16.6458 212.614 16.5938C213.249 16.5275 213.76 16.4659 214.148 16.4091C214.537 16.3475 214.818 16.2576 214.994 16.1392C215.169 16.0208 215.256 15.8456 215.256 15.6136V15.571C215.256 15.1212 215.114 14.7732 214.83 14.527C214.551 14.2808 214.153 14.1577 213.637 14.1577C213.093 14.1577 212.659 14.2784 212.337 14.5199C212.015 14.7566 211.802 15.0549 211.698 15.4148L208.9 15.1875C209.042 14.5246 209.321 13.9517 209.738 13.4688C210.155 12.9811 210.692 12.607 211.35 12.3466C212.013 12.0814 212.78 11.9489 213.651 11.9489C214.257 11.9489 214.837 12.0199 215.391 12.1619C215.95 12.304 216.445 12.5241 216.876 12.8224C217.311 13.1207 217.655 13.5043 217.906 13.973C218.156 14.437 218.282 14.9934 218.282 15.642V23H215.413V21.4872H215.327C215.152 21.8281 214.918 22.1288 214.624 22.3892C214.331 22.6449 213.978 22.8461 213.566 22.9929C213.154 23.1349 212.678 23.206 212.138 23.206ZM213.005 21.1179C213.45 21.1179 213.843 21.0303 214.184 20.8551C214.525 20.6752 214.792 20.4337 214.987 20.1307C215.181 19.8277 215.278 19.4844 215.278 19.1009V17.9432C215.183 18.0047 215.053 18.0616 214.887 18.1136C214.726 18.161 214.544 18.206 214.34 18.2486C214.137 18.2865 213.933 18.322 213.729 18.3551C213.526 18.3835 213.341 18.4096 213.175 18.4332C212.82 18.4853 212.51 18.5682 212.245 18.6818C211.98 18.7955 211.774 18.9493 211.627 19.1435C211.48 19.3329 211.407 19.5696 211.407 19.8537C211.407 20.2656 211.556 20.5805 211.854 20.7983C212.157 21.0114 212.541 21.1179 213.005 21.1179ZM229.706 15.2017L226.936 15.3722C226.889 15.1354 226.787 14.9223 226.631 14.733C226.474 14.5388 226.268 14.3849 226.013 14.2713C225.762 14.1529 225.461 14.0938 225.111 14.0938C224.642 14.0938 224.247 14.1932 223.925 14.392C223.603 14.5862 223.442 14.8466 223.442 15.1733C223.442 15.4337 223.546 15.6539 223.754 15.8338C223.963 16.0137 224.32 16.1581 224.827 16.267L226.801 16.6648C227.862 16.8826 228.652 17.233 229.173 17.7159C229.694 18.1989 229.955 18.8333 229.955 19.6193C229.955 20.3343 229.744 20.9616 229.322 21.5014C228.906 22.0412 228.333 22.4626 227.604 22.7656C226.879 23.0639 226.044 23.2131 225.097 23.2131C223.652 23.2131 222.502 22.9124 221.645 22.3111C220.793 21.705 220.293 20.8812 220.146 19.8395L223.122 19.6832C223.212 20.1236 223.43 20.4598 223.776 20.6918C224.121 20.919 224.564 21.0327 225.104 21.0327C225.634 21.0327 226.06 20.9309 226.382 20.7273C226.709 20.5189 226.875 20.2514 226.879 19.9247C226.875 19.6501 226.759 19.4252 226.531 19.25C226.304 19.0701 225.954 18.9328 225.48 18.8381L223.591 18.4616C222.526 18.2486 221.732 17.8793 221.212 17.3537C220.696 16.8281 220.438 16.1581 220.438 15.3438C220.438 14.643 220.627 14.0393 221.006 13.5327C221.389 13.026 221.927 12.6354 222.618 12.3608C223.314 12.0862 224.128 11.9489 225.061 11.9489C226.439 11.9489 227.523 12.2401 228.314 12.8224C229.109 13.4048 229.573 14.1979 229.706 15.2017Z" fill="#F1F1F1"/>
<path d="M5.16669 25.1875C5.16669 24.3311 5.5069 23.5097 6.11249 22.9041C6.71807 22.2986 7.53943 21.9583 8.39585 21.9583H25.8334M5.16669 25.1875C5.16669 26.0439 5.5069 26.8653 6.11249 27.4709C6.71807 28.0765 7.53943 28.4167 8.39585 28.4167H25.8334V2.58334H8.39585C7.53943 2.58334 6.71807 2.92356 6.11249 3.52914C5.5069 4.13473 5.16669 4.95608 5.16669 5.81251V25.1875Z" stroke="#616161" stroke-width="4" stroke-linecap="round" stroke-linejoin="round"/>
</svg>
